<mxfile host="65bd71144e">
    <diagram id="KepxmrDaXjgCn9gpi1Mp" name="number">
        <mxGraphModel dx="767" dy="483" grid="1" gridSize="10" guides="1" tooltips="1" connect="1" arrows="1" fold="1" page="1" pageScale="1" pageWidth="850" pageHeight="1100" math="0" shadow="0">
            <root>
                <mxCell id="0"/>
                <mxCell id="1" parent="0"/>
                <mxCell id="4" value="" style="strokeWidth=1;shadow=0;dashed=0;align=center;html=1;shape=mxgraph.mockup.containers.browserWindow;rSize=0;strokeColor=#666666;strokeColor2=#008cff;strokeColor3=#c4c4c4;mainText=,;recursiveResize=0;" parent="1" vertex="1">
                    <mxGeometry x="120" y="120" width="660" height="480" as="geometry"/>
                </mxCell>
                <mxCell id="5" value="Diamond App" style="strokeWidth=1;shadow=0;dashed=0;align=center;html=1;shape=mxgraph.mockup.containers.anchor;fontSize=17;fontColor=#666666;align=left;" parent="4" vertex="1">
                    <mxGeometry x="60" y="12" width="110" height="26" as="geometry"/>
                </mxCell>
                <mxCell id="6" value="https://diamond-app.test" style="strokeWidth=1;shadow=0;dashed=0;align=center;html=1;shape=mxgraph.mockup.containers.anchor;rSize=0;fontSize=17;fontColor=#666666;align=left;" parent="4" vertex="1">
                    <mxGeometry x="130" y="60" width="250" height="26" as="geometry"/>
                </mxCell>
                <mxCell id="7" value="3" style="strokeWidth=1;shadow=0;dashed=0;align=center;html=1;shape=mxgraph.mockup.text.textBox;fontColor=#666666;align=left;fontSize=17;spacingLeft=4;spacingTop=-3;strokeColor=#666666;mainText=" parent="4" vertex="1">
                    <mxGeometry x="50" y="125" width="150" height="30" as="geometry"/>
                </mxCell>
                <mxCell id="8" value="Star" style="shape=ellipse;fillColor=#eeeeee;strokeColor=#999999;gradientColor=#cccccc;html=1;align=left;spacingLeft=4;fontSize=17;fontColor=#666666;labelPosition=right;shadow=0;" parent="4" vertex="1">
                    <mxGeometry x="10" y="170" width="15" height="15" as="geometry"/>
                </mxCell>
                <mxCell id="9" value="N =" style="text;html=1;strokeColor=none;fillColor=none;align=center;verticalAlign=middle;whiteSpace=wrap;rounded=0;fontSize=20;" parent="4" vertex="1">
                    <mxGeometry x="7.5" y="130" width="40" height="20" as="geometry"/>
                </mxCell>
                <mxCell id="11" value="Number" style="shape=ellipse;fillColor=#eeeeee;strokeColor=#999999;gradientColor=#cccccc;html=1;align=left;spacingLeft=4;fontSize=17;fontColor=#666666;labelPosition=right;shadow=0;" parent="4" vertex="1">
                    <mxGeometry x="80" y="170" width="15" height="15" as="geometry"/>
                </mxCell>
                <mxCell id="85" value="" style="group" vertex="1" connectable="0" parent="4">
                    <mxGeometry x="25" y="220" width="340" height="240" as="geometry"/>
                </mxCell>
                <mxCell id="52" value="" style="group;fontSize=21;fontStyle=1" vertex="1" connectable="0" parent="85">
                    <mxGeometry width="340" height="40" as="geometry"/>
                </mxCell>
                <mxCell id="46" value="" style="whiteSpace=wrap;html=1;aspect=fixed;fontSize=21;fontStyle=1;dashed=1;dashPattern=1 4;strokeColor=#E6E6E6;" vertex="1" parent="52">
                    <mxGeometry x="50" width="40" height="40" as="geometry"/>
                </mxCell>
                <mxCell id="47" value="" style="whiteSpace=wrap;html=1;aspect=fixed;fontSize=21;fontStyle=1;dashed=1;dashPattern=1 4;strokeColor=#E6E6E6;" vertex="1" parent="52">
                    <mxGeometry x="100" width="40" height="40" as="geometry"/>
                </mxCell>
                <mxCell id="48" value="1" style="whiteSpace=wrap;html=1;aspect=fixed;fontSize=21;fontStyle=1;dashed=1;dashPattern=1 4;strokeColor=#E6E6E6;" vertex="1" parent="52">
                    <mxGeometry x="150" width="40" height="40" as="geometry"/>
                </mxCell>
                <mxCell id="49" value="" style="whiteSpace=wrap;html=1;aspect=fixed;fontSize=21;fontStyle=1;dashed=1;dashPattern=1 4;strokeColor=#E6E6E6;" vertex="1" parent="52">
                    <mxGeometry x="200" width="40" height="40" as="geometry"/>
                </mxCell>
                <mxCell id="50" value="" style="whiteSpace=wrap;html=1;aspect=fixed;fontSize=21;fontStyle=1;dashed=1;dashPattern=1 4;strokeColor=#E6E6E6;" vertex="1" parent="52">
                    <mxGeometry x="250" width="40" height="40" as="geometry"/>
                </mxCell>
                <mxCell id="53" value="" style="group;fontSize=21;fontStyle=1" vertex="1" connectable="0" parent="85">
                    <mxGeometry y="50" width="340" height="40" as="geometry"/>
                </mxCell>
                <mxCell id="55" value="" style="whiteSpace=wrap;html=1;aspect=fixed;fontSize=21;fontStyle=1;dashed=1;dashPattern=1 4;strokeColor=#E6E6E6;" vertex="1" parent="53">
                    <mxGeometry x="50" width="40" height="40" as="geometry"/>
                </mxCell>
                <mxCell id="56" value="1" style="whiteSpace=wrap;html=1;aspect=fixed;fontSize=21;fontStyle=1;dashed=1;dashPattern=1 4;strokeColor=#E6E6E6;" vertex="1" parent="53">
                    <mxGeometry x="100" width="40" height="40" as="geometry"/>
                </mxCell>
                <mxCell id="57" value="2" style="whiteSpace=wrap;html=1;aspect=fixed;fontSize=21;fontStyle=1;dashed=1;dashPattern=1 4;strokeColor=#E6E6E6;" vertex="1" parent="53">
                    <mxGeometry x="150" width="40" height="40" as="geometry"/>
                </mxCell>
                <mxCell id="58" value="1" style="whiteSpace=wrap;html=1;aspect=fixed;fontSize=21;fontStyle=1;dashed=1;dashPattern=1 4;strokeColor=#E6E6E6;" vertex="1" parent="53">
                    <mxGeometry x="200" width="40" height="40" as="geometry"/>
                </mxCell>
                <mxCell id="59" value="" style="whiteSpace=wrap;html=1;aspect=fixed;fontSize=21;fontStyle=1;dashed=1;dashPattern=1 4;strokeColor=#E6E6E6;" vertex="1" parent="53">
                    <mxGeometry x="250" width="40" height="40" as="geometry"/>
                </mxCell>
                <mxCell id="61" value="" style="group;fontSize=21;fontStyle=1" vertex="1" connectable="0" parent="85">
                    <mxGeometry y="100" width="340" height="40" as="geometry"/>
                </mxCell>
                <mxCell id="63" value="1" style="whiteSpace=wrap;html=1;aspect=fixed;fontSize=21;fontStyle=1;dashed=1;dashPattern=1 4;strokeColor=#E6E6E6;" vertex="1" parent="61">
                    <mxGeometry x="50" width="40" height="40" as="geometry"/>
                </mxCell>
                <mxCell id="64" value="2" style="whiteSpace=wrap;html=1;aspect=fixed;fontSize=21;fontStyle=1;dashed=1;dashPattern=1 4;strokeColor=#E6E6E6;" vertex="1" parent="61">
                    <mxGeometry x="100" width="40" height="40" as="geometry"/>
                </mxCell>
                <mxCell id="65" value="3" style="whiteSpace=wrap;html=1;aspect=fixed;fontSize=21;fontStyle=1;dashed=1;dashPattern=1 4;strokeColor=#E6E6E6;" vertex="1" parent="61">
                    <mxGeometry x="150" width="40" height="40" as="geometry"/>
                </mxCell>
                <mxCell id="66" value="2" style="whiteSpace=wrap;html=1;aspect=fixed;fontSize=21;fontStyle=1;dashed=1;dashPattern=1 4;strokeColor=#E6E6E6;" vertex="1" parent="61">
                    <mxGeometry x="200" width="40" height="40" as="geometry"/>
                </mxCell>
                <mxCell id="67" value="1" style="whiteSpace=wrap;html=1;aspect=fixed;fontSize=21;fontStyle=1;dashed=1;dashPattern=1 4;strokeColor=#E6E6E6;" vertex="1" parent="61">
                    <mxGeometry x="250" width="40" height="40" as="geometry"/>
                </mxCell>
                <mxCell id="69" value="" style="group;fontSize=21;fontStyle=1" vertex="1" connectable="0" parent="85">
                    <mxGeometry y="150" width="340" height="40" as="geometry"/>
                </mxCell>
                <mxCell id="71" value="" style="whiteSpace=wrap;html=1;aspect=fixed;fontSize=21;fontStyle=1;dashed=1;dashPattern=1 4;strokeColor=#E6E6E6;" vertex="1" parent="69">
                    <mxGeometry x="50" width="40" height="40" as="geometry"/>
                </mxCell>
                <mxCell id="72" value="1" style="whiteSpace=wrap;html=1;aspect=fixed;fontSize=21;fontStyle=1;dashed=1;dashPattern=1 4;strokeColor=#E6E6E6;" vertex="1" parent="69">
                    <mxGeometry x="100" width="40" height="40" as="geometry"/>
                </mxCell>
                <mxCell id="73" value="2" style="whiteSpace=wrap;html=1;aspect=fixed;fontSize=21;fontStyle=1;dashed=1;dashPattern=1 4;strokeColor=#E6E6E6;" vertex="1" parent="69">
                    <mxGeometry x="150" width="40" height="40" as="geometry"/>
                </mxCell>
                <mxCell id="74" value="1" style="whiteSpace=wrap;html=1;aspect=fixed;fontSize=21;fontStyle=1;dashed=1;dashPattern=1 4;strokeColor=#E6E6E6;" vertex="1" parent="69">
                    <mxGeometry x="200" width="40" height="40" as="geometry"/>
                </mxCell>
                <mxCell id="75" value="" style="whiteSpace=wrap;html=1;aspect=fixed;fontSize=21;fontStyle=1;dashed=1;dashPattern=1 4;strokeColor=#E6E6E6;" vertex="1" parent="69">
                    <mxGeometry x="250" width="40" height="40" as="geometry"/>
                </mxCell>
                <mxCell id="77" value="" style="group;fontSize=21;fontStyle=1" vertex="1" connectable="0" parent="85">
                    <mxGeometry y="200" width="340" height="40" as="geometry"/>
                </mxCell>
                <mxCell id="79" value="" style="whiteSpace=wrap;html=1;aspect=fixed;fontSize=21;fontStyle=1;dashed=1;dashPattern=1 4;strokeColor=#E6E6E6;" vertex="1" parent="77">
                    <mxGeometry x="50" width="40" height="40" as="geometry"/>
                </mxCell>
                <mxCell id="80" value="" style="whiteSpace=wrap;html=1;aspect=fixed;fontSize=21;fontStyle=1;dashed=1;dashPattern=1 4;strokeColor=#E6E6E6;" vertex="1" parent="77">
                    <mxGeometry x="100" width="40" height="40" as="geometry"/>
                </mxCell>
                <mxCell id="81" value="1" style="whiteSpace=wrap;html=1;aspect=fixed;fontSize=21;fontStyle=1;dashed=1;dashPattern=1 4;strokeColor=#E6E6E6;" vertex="1" parent="77">
                    <mxGeometry x="150" width="40" height="40" as="geometry"/>
                </mxCell>
                <mxCell id="82" value="" style="whiteSpace=wrap;html=1;aspect=fixed;fontSize=21;fontStyle=1;dashed=1;dashPattern=1 4;strokeColor=#E6E6E6;" vertex="1" parent="77">
                    <mxGeometry x="200" width="40" height="40" as="geometry"/>
                </mxCell>
                <mxCell id="83" value="" style="whiteSpace=wrap;html=1;aspect=fixed;fontSize=21;fontStyle=1;dashed=1;dashPattern=1 4;strokeColor=#E6E6E6;" vertex="1" parent="77">
                    <mxGeometry x="250" width="40" height="40" as="geometry"/>
                </mxCell>
                <mxCell id="16" value="" style="ellipse;whiteSpace=wrap;html=1;aspect=fixed;sketch=0;fontSize=20;fillColor=#0066CC;gradientColor=#0066CC;" parent="1" vertex="1">
                    <mxGeometry x="202" y="292" width="11" height="11" as="geometry"/>
                </mxCell>
            </root>
        </mxGraphModel>
    </diagram>
    <diagram name="star" id="Xsuz5A8EMSlU6AlyNCSL">
        <mxGraphModel dx="920" dy="579" grid="1" gridSize="10" guides="1" tooltips="1" connect="1" arrows="1" fold="1" page="1" pageScale="1" pageWidth="850" pageHeight="1100" math="0" shadow="0">
            <root>
                <mxCell id="04rQqUqYzD4PEe87jYt6-0"/>
                <mxCell id="04rQqUqYzD4PEe87jYt6-1" parent="04rQqUqYzD4PEe87jYt6-0"/>
                <mxCell id="04rQqUqYzD4PEe87jYt6-2" value="" style="strokeWidth=1;shadow=0;dashed=0;align=center;html=1;shape=mxgraph.mockup.containers.browserWindow;rSize=0;strokeColor=#666666;strokeColor2=#008cff;strokeColor3=#c4c4c4;mainText=,;recursiveResize=0;" vertex="1" parent="04rQqUqYzD4PEe87jYt6-1">
                    <mxGeometry x="120" y="120" width="660" height="480" as="geometry"/>
                </mxCell>
                <mxCell id="04rQqUqYzD4PEe87jYt6-3" value="Diamond App" style="strokeWidth=1;shadow=0;dashed=0;align=center;html=1;shape=mxgraph.mockup.containers.anchor;fontSize=17;fontColor=#666666;align=left;" vertex="1" parent="04rQqUqYzD4PEe87jYt6-2">
                    <mxGeometry x="60" y="12" width="110" height="26" as="geometry"/>
                </mxCell>
                <mxCell id="04rQqUqYzD4PEe87jYt6-4" value="https://diamond-app.test" style="strokeWidth=1;shadow=0;dashed=0;align=center;html=1;shape=mxgraph.mockup.containers.anchor;rSize=0;fontSize=17;fontColor=#666666;align=left;" vertex="1" parent="04rQqUqYzD4PEe87jYt6-2">
                    <mxGeometry x="130" y="60" width="250" height="26" as="geometry"/>
                </mxCell>
                <mxCell id="04rQqUqYzD4PEe87jYt6-5" value="3" style="strokeWidth=1;shadow=0;dashed=0;align=center;html=1;shape=mxgraph.mockup.text.textBox;fontColor=#666666;align=left;fontSize=17;spacingLeft=4;spacingTop=-3;strokeColor=#666666;mainText=" vertex="1" parent="04rQqUqYzD4PEe87jYt6-2">
                    <mxGeometry x="50" y="125" width="150" height="30" as="geometry"/>
                </mxCell>
                <mxCell id="04rQqUqYzD4PEe87jYt6-6" value="Star" style="shape=ellipse;fillColor=#eeeeee;strokeColor=#999999;gradientColor=#cccccc;html=1;align=left;spacingLeft=4;fontSize=17;fontColor=#666666;labelPosition=right;shadow=0;" vertex="1" parent="04rQqUqYzD4PEe87jYt6-2">
                    <mxGeometry x="10" y="170" width="15" height="15" as="geometry"/>
                </mxCell>
                <mxCell id="04rQqUqYzD4PEe87jYt6-7" value="N =" style="text;html=1;strokeColor=none;fillColor=none;align=center;verticalAlign=middle;whiteSpace=wrap;rounded=0;fontSize=20;" vertex="1" parent="04rQqUqYzD4PEe87jYt6-2">
                    <mxGeometry x="7.5" y="130" width="40" height="20" as="geometry"/>
                </mxCell>
                <mxCell id="04rQqUqYzD4PEe87jYt6-8" value="Number" style="shape=ellipse;fillColor=#eeeeee;strokeColor=#999999;gradientColor=#cccccc;html=1;align=left;spacingLeft=4;fontSize=17;fontColor=#666666;labelPosition=right;shadow=0;" vertex="1" parent="04rQqUqYzD4PEe87jYt6-2">
                    <mxGeometry x="80" y="170" width="15" height="15" as="geometry"/>
                </mxCell>
                <mxCell id="04rQqUqYzD4PEe87jYt6-9" value="" style="group" vertex="1" connectable="0" parent="04rQqUqYzD4PEe87jYt6-2">
                    <mxGeometry x="25" y="220" width="340" height="240" as="geometry"/>
                </mxCell>
                <mxCell id="04rQqUqYzD4PEe87jYt6-10" value="" style="group;fontSize=21;fontStyle=1" vertex="1" connectable="0" parent="04rQqUqYzD4PEe87jYt6-9">
                    <mxGeometry width="340" height="40" as="geometry"/>
                </mxCell>
                <mxCell id="04rQqUqYzD4PEe87jYt6-11" value="" style="whiteSpace=wrap;html=1;aspect=fixed;fontSize=21;fontStyle=1;dashed=1;dashPattern=1 4;strokeColor=#E6E6E6;" vertex="1" parent="04rQqUqYzD4PEe87jYt6-10">
                    <mxGeometry x="50" width="40" height="40" as="geometry"/>
                </mxCell>
                <mxCell id="04rQqUqYzD4PEe87jYt6-12" value="" style="whiteSpace=wrap;html=1;aspect=fixed;fontSize=21;fontStyle=1;dashed=1;dashPattern=1 4;strokeColor=#E6E6E6;" vertex="1" parent="04rQqUqYzD4PEe87jYt6-10">
                    <mxGeometry x="100" width="40" height="40" as="geometry"/>
                </mxCell>
                <mxCell id="04rQqUqYzD4PEe87jYt6-13" value="X" style="whiteSpace=wrap;html=1;aspect=fixed;fontSize=21;fontStyle=1;dashed=1;dashPattern=1 4;strokeColor=#E6E6E6;" vertex="1" parent="04rQqUqYzD4PEe87jYt6-10">
                    <mxGeometry x="150" width="40" height="40" as="geometry"/>
                </mxCell>
                <mxCell id="04rQqUqYzD4PEe87jYt6-14" value="" style="whiteSpace=wrap;html=1;aspect=fixed;fontSize=21;fontStyle=1;dashed=1;dashPattern=1 4;strokeColor=#E6E6E6;" vertex="1" parent="04rQqUqYzD4PEe87jYt6-10">
                    <mxGeometry x="200" width="40" height="40" as="geometry"/>
                </mxCell>
                <mxCell id="04rQqUqYzD4PEe87jYt6-15" value="" style="whiteSpace=wrap;html=1;aspect=fixed;fontSize=21;fontStyle=1;dashed=1;dashPattern=1 4;strokeColor=#E6E6E6;" vertex="1" parent="04rQqUqYzD4PEe87jYt6-10">
                    <mxGeometry x="250" width="40" height="40" as="geometry"/>
                </mxCell>
                <mxCell id="04rQqUqYzD4PEe87jYt6-16" value="" style="group;fontSize=21;fontStyle=1" vertex="1" connectable="0" parent="04rQqUqYzD4PEe87jYt6-9">
                    <mxGeometry y="50" width="340" height="40" as="geometry"/>
                </mxCell>
                <mxCell id="04rQqUqYzD4PEe87jYt6-17" value="" style="whiteSpace=wrap;html=1;aspect=fixed;fontSize=21;fontStyle=1;dashed=1;dashPattern=1 4;strokeColor=#E6E6E6;" vertex="1" parent="04rQqUqYzD4PEe87jYt6-16">
                    <mxGeometry x="50" width="40" height="40" as="geometry"/>
                </mxCell>
                <mxCell id="04rQqUqYzD4PEe87jYt6-18" value="X" style="whiteSpace=wrap;html=1;aspect=fixed;fontSize=21;fontStyle=1;dashed=1;dashPattern=1 4;strokeColor=#E6E6E6;" vertex="1" parent="04rQqUqYzD4PEe87jYt6-16">
                    <mxGeometry x="100" width="40" height="40" as="geometry"/>
                </mxCell>
                <mxCell id="04rQqUqYzD4PEe87jYt6-19" value="X" style="whiteSpace=wrap;html=1;aspect=fixed;fontSize=21;fontStyle=1;dashed=1;dashPattern=1 4;strokeColor=#E6E6E6;" vertex="1" parent="04rQqUqYzD4PEe87jYt6-16">
                    <mxGeometry x="150" width="40" height="40" as="geometry"/>
                </mxCell>
                <mxCell id="04rQqUqYzD4PEe87jYt6-20" value="X" style="whiteSpace=wrap;html=1;aspect=fixed;fontSize=21;fontStyle=1;dashed=1;dashPattern=1 4;strokeColor=#E6E6E6;" vertex="1" parent="04rQqUqYzD4PEe87jYt6-16">
                    <mxGeometry x="200" width="40" height="40" as="geometry"/>
                </mxCell>
                <mxCell id="04rQqUqYzD4PEe87jYt6-21" value="" style="whiteSpace=wrap;html=1;aspect=fixed;fontSize=21;fontStyle=1;dashed=1;dashPattern=1 4;strokeColor=#E6E6E6;" vertex="1" parent="04rQqUqYzD4PEe87jYt6-16">
                    <mxGeometry x="250" width="40" height="40" as="geometry"/>
                </mxCell>
                <mxCell id="04rQqUqYzD4PEe87jYt6-22" value="" style="group;fontSize=21;fontStyle=1" vertex="1" connectable="0" parent="04rQqUqYzD4PEe87jYt6-9">
                    <mxGeometry y="100" width="340" height="40" as="geometry"/>
                </mxCell>
                <mxCell id="04rQqUqYzD4PEe87jYt6-23" value="X" style="whiteSpace=wrap;html=1;aspect=fixed;fontSize=21;fontStyle=1;dashed=1;dashPattern=1 4;strokeColor=#E6E6E6;" vertex="1" parent="04rQqUqYzD4PEe87jYt6-22">
                    <mxGeometry x="50" width="40" height="40" as="geometry"/>
                </mxCell>
                <mxCell id="04rQqUqYzD4PEe87jYt6-24" value="X" style="whiteSpace=wrap;html=1;aspect=fixed;fontSize=21;fontStyle=1;dashed=1;dashPattern=1 4;strokeColor=#E6E6E6;" vertex="1" parent="04rQqUqYzD4PEe87jYt6-22">
                    <mxGeometry x="100" width="40" height="40" as="geometry"/>
                </mxCell>
                <mxCell id="04rQqUqYzD4PEe87jYt6-25" value="X" style="whiteSpace=wrap;html=1;aspect=fixed;fontSize=21;fontStyle=1;dashed=1;dashPattern=1 4;strokeColor=#E6E6E6;" vertex="1" parent="04rQqUqYzD4PEe87jYt6-22">
                    <mxGeometry x="150" width="40" height="40" as="geometry"/>
                </mxCell>
                <mxCell id="04rQqUqYzD4PEe87jYt6-26" value="X" style="whiteSpace=wrap;html=1;aspect=fixed;fontSize=21;fontStyle=1;dashed=1;dashPattern=1 4;strokeColor=#E6E6E6;" vertex="1" parent="04rQqUqYzD4PEe87jYt6-22">
                    <mxGeometry x="200" width="40" height="40" as="geometry"/>
                </mxCell>
                <mxCell id="04rQqUqYzD4PEe87jYt6-27" value="X" style="whiteSpace=wrap;html=1;aspect=fixed;fontSize=21;fontStyle=1;dashed=1;dashPattern=1 4;strokeColor=#E6E6E6;" vertex="1" parent="04rQqUqYzD4PEe87jYt6-22">
                    <mxGeometry x="250" width="40" height="40" as="geometry"/>
                </mxCell>
                <mxCell id="04rQqUqYzD4PEe87jYt6-28" value="" style="group;fontSize=21;fontStyle=1" vertex="1" connectable="0" parent="04rQqUqYzD4PEe87jYt6-9">
                    <mxGeometry y="150" width="340" height="40" as="geometry"/>
                </mxCell>
                <mxCell id="04rQqUqYzD4PEe87jYt6-29" value="" style="whiteSpace=wrap;html=1;aspect=fixed;fontSize=21;fontStyle=1;dashed=1;dashPattern=1 4;strokeColor=#E6E6E6;" vertex="1" parent="04rQqUqYzD4PEe87jYt6-28">
                    <mxGeometry x="50" width="40" height="40" as="geometry"/>
                </mxCell>
                <mxCell id="04rQqUqYzD4PEe87jYt6-30" value="X" style="whiteSpace=wrap;html=1;aspect=fixed;fontSize=21;fontStyle=1;dashed=1;dashPattern=1 4;strokeColor=#E6E6E6;" vertex="1" parent="04rQqUqYzD4PEe87jYt6-28">
                    <mxGeometry x="100" width="40" height="40" as="geometry"/>
                </mxCell>
                <mxCell id="04rQqUqYzD4PEe87jYt6-31" value="X" style="whiteSpace=wrap;html=1;aspect=fixed;fontSize=21;fontStyle=1;dashed=1;dashPattern=1 4;strokeColor=#E6E6E6;" vertex="1" parent="04rQqUqYzD4PEe87jYt6-28">
                    <mxGeometry x="150" width="40" height="40" as="geometry"/>
                </mxCell>
                <mxCell id="04rQqUqYzD4PEe87jYt6-32" value="X" style="whiteSpace=wrap;html=1;aspect=fixed;fontSize=21;fontStyle=1;dashed=1;dashPattern=1 4;strokeColor=#E6E6E6;" vertex="1" parent="04rQqUqYzD4PEe87jYt6-28">
                    <mxGeometry x="200" width="40" height="40" as="geometry"/>
                </mxCell>
                <mxCell id="04rQqUqYzD4PEe87jYt6-33" value="" style="whiteSpace=wrap;html=1;aspect=fixed;fontSize=21;fontStyle=1;dashed=1;dashPattern=1 4;strokeColor=#E6E6E6;" vertex="1" parent="04rQqUqYzD4PEe87jYt6-28">
                    <mxGeometry x="250" width="40" height="40" as="geometry"/>
                </mxCell>
                <mxCell id="04rQqUqYzD4PEe87jYt6-34" value="" style="group;fontSize=21;fontStyle=1" vertex="1" connectable="0" parent="04rQqUqYzD4PEe87jYt6-9">
                    <mxGeometry y="200" width="340" height="40" as="geometry"/>
                </mxCell>
                <mxCell id="04rQqUqYzD4PEe87jYt6-35" value="" style="whiteSpace=wrap;html=1;aspect=fixed;fontSize=21;fontStyle=1;dashed=1;dashPattern=1 4;strokeColor=#E6E6E6;" vertex="1" parent="04rQqUqYzD4PEe87jYt6-34">
                    <mxGeometry x="50" width="40" height="40" as="geometry"/>
                </mxCell>
                <mxCell id="04rQqUqYzD4PEe87jYt6-36" value="" style="whiteSpace=wrap;html=1;aspect=fixed;fontSize=21;fontStyle=1;dashed=1;dashPattern=1 4;strokeColor=#E6E6E6;" vertex="1" parent="04rQqUqYzD4PEe87jYt6-34">
                    <mxGeometry x="100" width="40" height="40" as="geometry"/>
                </mxCell>
                <mxCell id="04rQqUqYzD4PEe87jYt6-37" value="X" style="whiteSpace=wrap;html=1;aspect=fixed;fontSize=21;fontStyle=1;dashed=1;dashPattern=1 4;strokeColor=#E6E6E6;" vertex="1" parent="04rQqUqYzD4PEe87jYt6-34">
                    <mxGeometry x="150" width="40" height="40" as="geometry"/>
                </mxCell>
                <mxCell id="04rQqUqYzD4PEe87jYt6-38" value="" style="whiteSpace=wrap;html=1;aspect=fixed;fontSize=21;fontStyle=1;dashed=1;dashPattern=1 4;strokeColor=#E6E6E6;" vertex="1" parent="04rQqUqYzD4PEe87jYt6-34">
                    <mxGeometry x="200" width="40" height="40" as="geometry"/>
                </mxCell>
                <mxCell id="04rQqUqYzD4PEe87jYt6-39" value="" style="whiteSpace=wrap;html=1;aspect=fixed;fontSize=21;fontStyle=1;dashed=1;dashPattern=1 4;strokeColor=#E6E6E6;" vertex="1" parent="04rQqUqYzD4PEe87jYt6-34">
                    <mxGeometry x="250" width="40" height="40" as="geometry"/>
                </mxCell>
                <mxCell id="04rQqUqYzD4PEe87jYt6-40" value="" style="ellipse;whiteSpace=wrap;html=1;aspect=fixed;sketch=0;fontSize=20;fillColor=#0066CC;gradientColor=#0066CC;" vertex="1" parent="04rQqUqYzD4PEe87jYt6-1">
                    <mxGeometry x="132" y="292" width="11" height="11" as="geometry"/>
                </mxCell>
            </root>
        </mxGraphModel>
    </diagram>
</mxfile>